<svg xmlns="http://www.w3.org/2000/svg" viewBox="0 0 160 100" fill="none">
  <rect width="160" height="100" rx="18" fill="#ECFDF5"/>
  <rect x="14" y="14" width="132" height="72" rx="16" fill="#22C55E" opacity="0.10"/>
  <path d="M54 28h52a8 8 0 0 1 8 8v22a8 8 0 0 1-8 8H54a8 8 0 0 1-8-8V36a8 8 0 0 1 8-8z" fill="#A7F3D0" stroke="#15803D" stroke-width="3"/>
  <path d="M64 24v-6h32v6" stroke="#15803D" stroke-width="3" stroke-linecap="round"/>
  <path d="M72 42h16" stroke="#15803D" stroke-width="3" stroke-linecap="round"/>
  <path d="M66 56h28" stroke="#15803D" stroke-width="3" stroke-linecap="round"/>
  <circle cx="88" cy="44" r="10" fill="#BBF7D0" stroke="#15803D" stroke-width="3"/>
  <path d="M84 44h8" stroke="#15803D" stroke-width="3" stroke-linecap="round"/>
  <path d="M88 40v8" stroke="#15803D" stroke-width="3" stroke-linecap="round"/>
  <path d="M44 64l14-12" stroke="#F59E0B" stroke-width="4" stroke-linecap="round"/>
  <path d="M58 64l-14-12" stroke="#F59E0B" stroke-width="4" stroke-linecap="round"/>
</svg>