<svg xmlns="http://www.w3.org/2000/svg" viewBox="0 0 160 100" fill="none">
  <rect width="160" height="100" rx="18" fill="#ECFDF5"/>
  <rect x="14" y="14" width="132" height="72" rx="16" fill="#10B981" opacity="0.10"/>
  <path d="M42 34h76a8 8 0 0 1 8 8v18a6 6 0 0 1-6 6H40a6 6 0 0 1-6-6V42a8 8 0 0 1 8-8z" fill="#FBBF24"/>
  <path d="M52 30c0-8 6-14 14-14h28c8 0 14 6 14 14" stroke="#B45309" stroke-width="3" stroke-linecap="round"/>
  <path d="M56 50h48" stroke="#065F46" stroke-width="3" stroke-linecap="round"/>
  <circle cx="66" cy="52" r="8" fill="#F472B6"/>
  <circle cx="94" cy="52" r="8" fill="#FCD34D"/>
  <path d="M60 44c4-4 9-5 14-5" stroke="#065F46" stroke-width="2" stroke-linecap="round"/>
  <path d="M86 44c4-4 9-5 14-5" stroke="#065F46" stroke-width="2" stroke-linecap="round"/>
  <path d="M80 30l5 10 5-10" stroke="#B45309" stroke-width="3" stroke-linecap="round" stroke-linejoin="round"/>
</svg>